<?xml version="1.0" encoding="UTF-8"?>
<svg id="_レイヤー_2" data-name="レイヤー 2" xmlns="http://www.w3.org/2000/svg" width="15" height="25" viewBox="0 0 15 25">
  <defs>
    <style>
      .cls-1 {
        fill: #333;
        fill-rule: evenodd;
      }
    </style>
  </defs>
  <g id="_レイヤー_2-2" data-name="レイヤー 2">
    <path id="icon_phone_black" data-name="icon phone black" class="cls-1" d="M2.02,25C.93,25.02,.03,24.16,0,23.07c0-.03,0-.06,0-.09V2.02C-.02,.93,.84,.02,1.93,0c.03,0,.06,0,.09,0H12.98c1.09-.03,1.99,.84,2.02,1.93,0,.03,0,.06,0,.09V22.98c.03,1.09-.84,1.99-1.93,2.02-.03,0-.06,0-.09,0H2.02Zm-.77-5.58v3.56c.03,.41,.36,.74,.77,.77H12.98c.41-.03,.74-.36,.77-.77v-3.56H1.25Zm6.25,3.13c.53-.01,.95-.43,.96-.96-.02-.53-.46-.95-.99-.93-.51,.02-.91,.42-.93,.93,.01,.53,.44,.95,.96,.96h0ZM1.25,18.17H13.75V4.37H1.25v13.8h0ZM1.25,3.12H13.75v-1.11c-.03-.41-.36-.74-.77-.77H2.02c-.41,.03-.74,.36-.77,.77v1.11h0Z"/>
  </g>
</svg>