<?xml version="1.0" encoding="UTF-8"?><svg id="_レイヤー_1" xmlns="http://www.w3.org/2000/svg" viewBox="0 0 206.78 64.31"><defs><style>.cls-1{fill:#60c1bd;fill-rule:evenodd;}</style></defs><path id="logo_white" class="cls-1" d="M2.79,63.7c13.1,2.13,22.06-1.38,28.01-7.08,5.5-5.27,9.64-19.04,16.52-22.6-11.15,1.66-15.79,13.42-23.55,20.44-5.39,4.87-14.66,8.5-20.98,9.24ZM28.02,48.41c8.02-11.03,13.47-18.4,7.04-27.71-3.51-5.08-7.76-6.21-11.53-11.53.89,5.98,3.53,7.03,5.88,12.04,2.98,6.36,3.67,15.67-1.38,27.2ZM12.46,33.11c-.52,1.92-2.5,3.05-4.41,2.52-1.92-.52-3.05-2.5-2.52-4.41s2.5-3.05,4.41-2.52c0,0,0,0,0,0,1.91.52,3.04,2.5,2.52,4.41ZM16.6,38.76c-.36,1.32-1.72,2.09-3.03,1.74s-2.09-1.72-1.74-3.03c.36-1.32,1.72-2.09,3.03-1.74,1.32.36,2.09,1.72,1.74,3.03ZM22.48,38.06c-.26.96-1.25,1.53-2.21,1.27s-1.53-1.25-1.27-2.21c.26-.96,1.25-1.53,2.21-1.27,0,0,0,0,0,0,.95.26,1.52,1.25,1.26,2.2h0ZM17.53,12.4C10.23,12.9,2.52,1.51,10.09,0c-3.77,3.99,9.32,8.09,7.44,12.4ZM28.02,21.25c-4.43-2.62-13.3-7.04-20.45-.65-3.97,3.54-4.64,10.93-3.58,13.56C-1.92,28.69-1.48,19.61,6.93,14.69c8.22-4.81,19.4,1.31,21.09,6.56h0ZM98.17,49.83l2.95-9.49h1.5v10.09h-1.07v-9.21l-2.83,9.21h-1.07l-2.83-9.21v9.21h-1.07v-10.09h1.5l2.93,9.49ZM105.49,41.49h-1.15v-1.15h1.15v1.15h0ZM104.43,43.44h.98v6.99h-.98v-6.99ZM107.05,43.44h5.4v.35l-4.42,6.14h4.9v.49h-6.26v-.25l4.52-6.26h-4.15v-.48h0ZM114.75,48.37c-.05.89.63,1.65,1.52,1.7.04,0,.07,0,.11,0,.27,0,1.55,0,2.05-1.88v-4.76h.98v6.99h-.98v-1.15c-.45.84-1.33,1.36-2.29,1.34-1.2.11-2.27-.79-2.37-1.99,0-.11-.01-.22,0-.33v-4.86h.98v4.93h0ZM125.64,50.43v-5.22c.07-.72-.46-1.36-1.18-1.42-.09,0-.19,0-.28,0-1.14.09-2.07.96-2.24,2.09v4.55h-.98v-10.09h.99v4.42c.5-.95,1.51-1.54,2.59-1.51,1.01-.13,1.94.59,2.07,1.61.01.1.02.2.01.3v5.27h-.97ZM130.93,50.62c-2.02,0-3.06-1.64-3.06-3.69s1.06-3.68,3.06-3.68,3.05,1.6,3.05,3.68-1.07,3.69-3.04,3.69h0ZM132.9,46.78c0-1.08-.23-3-1.96-3-1.4,0-1.98,1.14-1.98,3.29,0,1.08.23,3,1.98,3,1.38,0,1.97-1.1,1.97-3.3h0ZM147.13,47.53c-.18,1.83-1.77,3.19-3.61,3.08-2.46,0-4.12-1.79-4.12-5.28,0-3,1.47-5.19,4.16-5.19,1.74-.13,3.27,1.12,3.49,2.85h-1.19c-.04-1.28-1.09-2.3-2.37-2.31-2.53,0-2.91,2.88-2.91,4.7,0,2.02.48,4.69,2.88,4.69,2.08,0,2.39-2.04,2.47-2.54h1.19ZM148.47,40.34h.98v10.09h-.98v-10.09ZM152.45,41.49h-1.15v-1.15h1.15v1.15ZM151.39,43.44h.98v6.99h-.98v-6.99ZM158.79,45.5c.11-.83-.48-1.6-1.32-1.7-.09-.01-.18-.01-.27-.01-1.07.02-1.96.82-2.11,1.87v4.77h-.98v-6.99h.98v1.15c.47-.84,1.35-1.36,2.31-1.34,1.15-.15,2.2.67,2.35,1.82.02.17.02.34,0,.51v4.86h-.97v-4.92h0ZM162.56,41.49h-1.15v-1.15h1.15v1.15ZM161.5,43.44h.98v6.99h-.98v-6.99h0ZM170.03,47.91c-.06,1.56-1.37,2.77-2.92,2.71-.03,0-.05,0-.08,0-1.57,0-3.1-.95-3.1-3.65s1.6-3.72,3.2-3.72c1.46-.08,2.72,1.01,2.86,2.47h-1.06c-.16-1.49-.94-1.92-1.78-1.92-1.71,0-2.13,1.68-2.13,3.23,0,1.85.56,3.06,2.02,3.06.74,0,1.77-.31,1.85-2.17h1.16ZM65.21,33.11c2.24-.6,4.03-1.51,5.51-7.23-1.6-.96-3.38-1.59-5.24-1.85-1.55,3.7-3.32,7.94-5.99,7.94-1.44,0-2.5-1.1-2.5-3.12,0-.6,0-5.88,6.61-6.16.82-1.98,1.52-4.01,2.09-6.07-1.83.11-3.47.3-4.68.49l-.19-1.42c2.31.05,4.62-.14,6.89-.56l.78,1.29c-.2.35-.37.72-.5,1.1-.3.75-1.72,4.5-2.07,5.34,1.79.18,3.53.67,5.15,1.44.37-1.89.64-3.79.8-5.71l2,.47c.25,0,.48.11.65.3,0,.11-.3.58-.32.69-.25,1.75-.59,3.48-1.03,5.19,1.22.63,2.38,1.37,3.47,2.22l-1.33,2.15c-.78-.94-1.68-1.78-2.67-2.5-1.27,4-2.58,5.94-6.81,7.21l-.62-1.22ZM58.49,29.13c0,.36.04,1.46.84,1.46.48-.08.88-.42,1.03-.88,1.07-1.86,2-3.79,2.78-5.79-2.63.32-4.62,2.55-4.65,5.2h0ZM90.01,15.26c.39.04.54.09.54.26,0,.08-.17.54-.19.64-.02.09,0,1.31.02,2.33,3.64-.19,4.57-.3,5.88-.45v1.49c-2.39-.07-4.95.04-5.86.08,0,.9.11,5.38.11,6.4,0,6.24-3.86,7.79-6.85,8.74l-.65-1.12c1.39-.27,2.67-.97,3.64-2,.82-.88,1.33-2.01,1.46-3.21-.63.81-1.6,1.28-2.63,1.27-1.64,0-3.17-1.27-3.17-3.94s1.57-4.3,3.42-4.3c.87,0,1.71.29,2.39.84-.02-1.14-.02-1.7-.04-2.6-6.1.23-8.06.37-9.69.6v-1.46c.77.02,3.77.02,9.63-.26-.04-1.1-.13-2.41-.26-3.51l2.24.2ZM84.34,25.48c0,.39,0,2.67,1.81,2.67.73-.03,1.38-.46,1.7-1.12.28-.66.39-1.38.32-2.09.13-1.07-.64-2.03-1.7-2.16-.05,0-.1,0-.15-.01-.12,0-1.98,0-1.98,2.71ZM94.77,17.84c-.41-1.06-.93-2.08-1.55-3.04l.93-.47c.79.87,1.46,1.83,2,2.87l-1.38.65ZM96.32,13.71c.78.74,1.44,1.6,1.96,2.54l-1.38.69c-.38-.98-.9-1.9-1.53-2.73l.95-.5ZM100.64,33c-.44-2.12-.64-4.29-.6-6.46.03-3,.26-6,.69-8.98.04-.28.13-.86.17-1.55l2.18.52c.14,0,.27.09.32.21-.05.17-.12.33-.21.47-.64,2.88-.98,5.82-1.01,8.76-.03,2.2.23,4.39.78,6.52l-2.31.5ZM116.52,17.56c-.86-.03-1.4-.03-3.49,0,0,1.74.04,3.18.06,3.68,1.3-.01,2.61-.1,3.9-.28l.02,1.4c-.86-.02-1.62-.02-3.9,0,.02.71.15,4.26.17,5.06,1.62.59,3.12,1.46,4.44,2.56l-1.42,1.81c-.8-1.07-1.81-1.96-2.97-2.63.02,2.11.06,4.09-4.01,4.09-2.91,0-4.44-1.32-4.44-3.01,0-1.83,1.77-3.38,4.93-3.38.38,0,.76.04,1.14.09-.02-.73-.13-3.83-.13-4.54-1.36.02-3.04.06-6.07.26l-.02-1.4c.64.06,1.29.09,1.94.08.19,0,3.79-.06,4.14-.08-.02-1.49-.02-1.7-.04-3.64-2.5.04-4.26.13-5.56.22v-1.31c.52,0,8.45.11,11.31-.32v1.36h0ZM109.74,28.09c-1.77,0-2.8.9-2.8,2.07,0,.97.75,1.74,2.15,1.74.94.15,1.83-.5,1.97-1.45.02-.15.03-.3.01-.45,0-.36-.02-1.25-.04-1.75-.43-.1-.86-.15-1.3-.17h0ZM119.68,24.37c2.74-1.4,4.37-3.55,5.43-6.93.26-.76.44-1.55.54-2.35l2.37.67c.14,0,.28.08.37.19-.11.2-.24.4-.39.58-.26.69-.73,1.87-.82,2.07h4.7c.69,0,2.86-.08,3.51-.19l1.16,1.18c-.22.54-.97,3.34-1.19,3.96-2.97,8.68-9.73,9.71-14.28,10.1l-.24-1.18c3.08-.28,11.27-1.23,12.88-12.71h-7.17c-1.41,2.49-3.58,4.46-6.2,5.62l-.67-1.01ZM140.09,17.24c0-.15-.06-1.25-.09-1.62l2.3.15c.11,0,.39.02.39.15-.1.19-.19.39-.26.6v7.13c0,.52.04,2.89.09,3.47h-2.5c.02-.35.06-3.12.06-3.49v-6.39h0ZM142.74,32.76c6.83-1.12,7.04-4.97,7.04-12.62.02-1.55-.06-3.09-.26-4.63l2.46.15c.13-.02.26.04.32.15-.05.18-.11.36-.17.54-.04.19,0,4.86,0,5.79,0,8.29-2,10.61-8.85,11.8l-.54-1.19ZM173.13,31.68c-1.38-.08-2.91-.11-3.43-.11h-11.55c-.24,0-2,.02-3.34.11v-1.55c.9.06,3.17.11,3.36.11h11.52c.99,0,2.5-.02,3.43-.13v1.57h0ZM171.43,19.07c-.73-.06-2.91-.13-3.43-.13h-7.88c-.9,0-2.59.06-3.45.13v-1.59c.82.06,2.61.13,3.45.13h7.86c.84,0,2.61-.07,3.45-.13,0,0,0,1.59,0,1.59ZM175.21,21.16c1.32,1.39,2.42,2.98,3.23,4.72l-1.85.86c-.36-1.83-1.12-3.56-2.22-5.06l.84-.52ZM187.88,20.27c.26.04.37.08.37.17-.06.2-.13.39-.21.58-1.08,8.68-5.3,11.3-10.21,12.88l-.5-.88c1.92-.41,8.57-3.04,8.64-13.05l1.92.3ZM180.16,20.27c1.17,1.21,2.17,2.59,2.95,4.09l-1.9.73c-.36-1.56-1-3.03-1.9-4.35l.85-.47ZM189.91,24.37c2.74-1.4,4.37-3.55,5.43-6.93.26-.76.44-1.55.54-2.35l2.37.67c.14,0,.28.08.37.19-.11.2-.24.4-.39.58-.26.69-.73,1.87-.82,2.07h4.7c.69,0,2.87-.08,3.51-.19l1.16,1.18c-.21.54-.97,3.34-1.18,3.96-2.97,8.68-9.74,9.71-14.28,10.1l-.24-1.19c3.08-.28,11.27-1.23,12.88-12.71h-7.17c-1.41,2.49-3.58,4.46-6.2,5.62l-.67-1.01Z"/></svg>